<svg version="1.0" xmlns="http://www.w3.org/2000/svg" width="468" height="138" viewBox="0 0 340.000000 250.000000" preserveAspectRatio="xMidYMid meet" color-interpolation-filters="sRGB" class="el-tooltip" style="margin: auto;">
    <g fill-opacity="1" fill="#e22027" transform="translate(77.73228454589844,97.8206844329834)">
        <g fill-opacity="1">
            <g transform="translate(10,10)">
                <g class="tp-name" fill="#fff" fill-opacity="1" transform="translate(66.90721607208252,0)">
                    <g>
                        <path transform="translate(-1.89826171875,21.55248)" d="M7.02-6.05L1.98-19.62L1.98-19.62Q1.80-20.12 2.02-20.61L2.02-20.61L2.02-20.61Q2.23-21.10 2.74-21.28L2.74-21.28L2.74-21.28Q3.24-21.46 3.74-21.24L3.74-21.24L3.74-21.24Q4.25-21.02 4.43-20.52L4.43-20.52L8.24-10.22L12.10-20.52L12.10-20.52Q12.28-21.02 12.78-21.24L12.78-21.24L12.78-21.24Q13.28-21.46 13.79-21.28L13.79-21.28L13.79-21.28Q14.29-21.10 14.51-20.61L14.51-20.61L14.51-20.61Q14.72-20.12 14.54-19.62L14.54-19.62L9.47-6.05L9.47-6.05Q9.29-5.51 8.71-5.26L8.71-5.26L8.71-5.26Q8.21-5.08 7.70-5.31L7.70-5.31L7.70-5.31Q7.20-5.54 7.02-6.05L7.02-6.05ZM19.62-5.00L19.62-5.00L19.62-5.00Q19.08-5.00 18.70-5.38L18.70-5.38L18.70-5.38Q18.32-5.76 18.32-6.34L18.32-6.34L18.32-20.23L18.32-20.23Q18.32-20.77 18.70-21.15L18.70-21.15L18.70-21.15Q19.08-21.53 19.62-21.53L19.62-21.53L19.62-21.53Q20.12-21.53 20.56-21.17L20.56-21.17L25.49-16.88L30.46-21.20L30.46-21.20Q30.85-21.60 31.39-21.55L31.39-21.55L31.39-21.55Q31.93-21.49 32.29-21.10L32.29-21.10L32.29-21.10Q32.62-20.70 32.62-20.23L32.62-20.23L32.62-6.34L32.62-6.34Q32.62-5.76 32.24-5.38L32.24-5.38L32.24-5.38Q31.86-5.00 31.32-5.00L31.32-5.00L31.32-5.00Q30.78-5.00 30.38-5.38L30.38-5.38L30.38-5.38Q29.99-5.76 29.99-6.34L29.99-6.34L29.99-17.35L26.35-14.18L26.35-14.18Q25.96-13.86 25.49-13.86L25.49-13.86L25.49-13.86Q25.02-13.86 24.62-14.18L24.62-14.18L20.95-17.35L20.95-6.34L20.95-6.34Q20.95-5.76 20.57-5.38L20.57-5.38L20.57-5.38Q20.20-5.00 19.62-5.00Z">
                        </path>
                    </g>
                </g>
                <g class="tp-slogan" fill="#fff" fill-opacity="1" transform="translate(0,28.559555053710938)">
                    <g>
                        <path transform="translate(-0.624,5.616)" d="M4.17-0.33C4.19-0.27 4.22-0.19 4.20-0.14C4.19-0.06 4.15-0.01 4.06 0.03L4.07 0.03C3.95 0.11 3.79 0.06 3.72-0.05C3.28-0.76 2.81-1.50 2.36-2.22C2.26-2.22 2.14-2.22 2.03-2.22C1.81-2.22 1.58-2.22 1.37-2.23C1.31-2.23 1.25-2.24 1.19-2.24L1.15-2.24L1.15-0.12C1.15 0.02 1.04 0.14 0.89 0.14C0.74 0.14 0.62 0.02 0.62-0.12L0.62-5.21C0.62-5.31 0.68-5.40 0.78-5.44C0.79-5.45 0.80-5.45 0.81-5.45C0.82-5.46 0.83-5.46 0.84-5.46C0.85-5.46 0.86-5.46 0.86-5.46L0.94-5.46C1.06-5.46 1.26-5.48 1.34-5.49C1.62-5.50 1.89-5.52 2.15-5.52C2.59-5.52 3.01-5.46 3.35-5.30C3.83-5.04 4.09-4.46 4.11-3.92C4.12-3.62 4.06-3.31 3.92-3.04C3.80-2.81 3.63-2.62 3.38-2.48C3.25-2.40 3.10-2.34 2.94-2.30ZM1.22-2.77C1.27-2.77 1.33-2.76 1.38-2.76C1.58-2.75 1.81-2.74 2.02-2.74C2.44-2.74 2.85-2.78 3.13-2.94C3.27-3.02 3.38-3.14 3.45-3.29C3.55-3.46 3.58-3.69 3.58-3.90C3.57-4.12 3.51-4.34 3.42-4.51C3.34-4.65 3.24-4.77 3.11-4.83C2.86-4.96 2.53-5 2.15-5C1.90-5 1.66-4.98 1.38-4.97C1.38-4.98 1.25-4.96 1.15-4.95L1.15-2.77ZM7.94-5C7.91-5 7.86-5.01 7.82-5.01L7.69-5.01C7.54-5.01 7.36-5.02 7.19-5.02C6.98-5.02 6.74-5.01 6.54-4.98C6.28-4.94 6.06-4.86 5.93-4.70C5.79-4.54 5.72-4.30 5.73-3.96L5.74-3.04L8.13-3.04C8.27-3.04 8.38-2.93 8.38-2.77C8.38-2.62 8.27-2.51 8.13-2.51L5.74-2.51L5.77-1.32C5.78-0.99 5.84-0.78 5.96-0.64C6.08-0.50 6.27-0.43 6.50-0.39C6.68-0.36 6.88-0.35 7.09-0.35C7.39-0.35 7.73-0.38 8-0.40C8.07-0.40 8.15-0.37 8.23-0.30C8.26-0.28 8.27-0.23 8.29-0.14C8.30 0 8.18 0.11 8.05 0.13C7.77 0.15 7.39 0.18 7.06 0.18C6.83 0.18 6.62 0.17 6.42 0.14C6.06 0.07 5.78-0.06 5.57-0.28C5.37-0.52 5.25-0.85 5.24-1.31L5.20-3.96C5.19-4.44 5.30-4.79 5.53-5.05C5.76-5.31 6.08-5.45 6.47-5.50C6.70-5.53 6.99-5.54 7.26-5.54C7.46-5.54 7.64-5.54 7.82-5.53L8.06-5.53C8.21-5.52 8.33-5.42 8.33-5.26C8.33-5.18 8.30-5.12 8.25-5.07C8.20-5.03 8.14-5 8.06-5ZM9.34-5.18C9.34-5.33 9.46-5.45 9.62-5.45C9.64-5.45 9.65-5.45 9.66-5.44C9.68-5.45 9.70-5.45 9.71-5.45L9.94-5.46L9.94-5.46L10.17-5.49C10.46-5.51 10.73-5.53 10.99-5.53C11.39-5.53 11.76-5.48 12.07-5.32C12.56-5.06 12.81-4.45 12.82-3.90C12.84-3.58 12.77-3.23 12.62-2.96C12.51-2.75 12.32-2.54 12.10-2.42L12.11-2.42C11.74-2.19 11.24-2.14 10.74-2.14C10.52-2.14 10.30-2.15 10.09-2.16C10.03-2.16 9.98-2.17 9.92-2.17L9.87-2.17L9.87-0.21C9.87-0.07 9.76 0.05 9.60 0.05C9.46 0.05 9.34-0.07 9.34-0.21ZM9.94-2.69C9.99-2.69 10.05-2.68 10.10-2.68C10.30-2.67 10.52-2.66 10.73-2.66C11.15-2.66 11.56-2.70 11.83-2.87C11.98-2.95 12.09-3.06 12.15-3.20C12.26-3.41 12.30-3.65 12.30-3.89C12.29-4.14 12.22-4.38 12.12-4.57L12.12-4.56C12.03-4.69 11.94-4.80 11.82-4.86C11.62-4.97 11.34-5.01 11.02-5.01C10.77-5.01 10.50-4.98 10.21-4.96L9.87-4.94L9.87-2.69ZM17.38-0.33C17.41-0.27 17.43-0.19 17.42-0.14C17.41-0.06 17.37-0.01 17.28 0.03L17.29 0.03C17.17 0.11 17.01 0.06 16.94-0.05C16.50-0.76 16.02-1.50 15.58-2.22C15.47-2.22 15.36-2.22 15.25-2.22C15.02-2.22 14.79-2.22 14.58-2.23C14.53-2.23 14.46-2.24 14.41-2.24L14.37-2.24L14.37-0.12C14.37 0.02 14.26 0.14 14.10 0.14C13.95 0.14 13.84 0.02 13.84-0.12L13.84-5.21C13.84-5.31 13.90-5.40 14-5.44C14.01-5.45 14.02-5.45 14.02-5.45C14.03-5.46 14.05-5.46 14.06-5.46C14.06-5.46 14.07-5.46 14.08-5.46L14.15-5.46C14.27-5.46 14.48-5.48 14.56-5.49C14.83-5.50 15.10-5.52 15.37-5.52C15.81-5.52 16.22-5.46 16.57-5.30C17.05-5.04 17.30-4.46 17.33-3.92C17.34-3.62 17.28-3.31 17.14-3.04C17.02-2.81 16.85-2.62 16.60-2.48C16.46-2.40 16.31-2.34 16.15-2.30ZM14.43-2.77C14.49-2.77 14.54-2.76 14.60-2.76C14.80-2.75 15.02-2.74 15.23-2.74C15.66-2.74 16.06-2.78 16.34-2.94C16.49-3.02 16.60-3.14 16.66-3.29C16.77-3.46 16.80-3.69 16.79-3.90C16.78-4.12 16.73-4.34 16.63-4.51C16.56-4.65 16.46-4.77 16.33-4.83C16.08-4.96 15.74-5 15.37-5C15.12-5 14.87-4.98 14.60-4.97C14.59-4.98 14.46-4.96 14.37-4.95L14.37-2.77ZM21.16-5C21.13-5 21.08-5.01 21.03-5.01L20.90-5.01C20.75-5.01 20.58-5.02 20.41-5.02C20.19-5.02 19.95-5.01 19.76-4.98C19.50-4.94 19.27-4.86 19.14-4.70C19.01-4.54 18.94-4.30 18.94-3.96L18.95-3.04L21.34-3.04C21.49-3.04 21.60-2.93 21.60-2.77C21.60-2.62 21.49-2.51 21.34-2.51L18.96-2.51L18.98-1.32C18.99-0.99 19.06-0.78 19.18-0.64C19.30-0.50 19.49-0.43 19.72-0.39C19.90-0.36 20.10-0.35 20.30-0.35C20.61-0.35 20.94-0.38 21.22-0.40C21.29-0.40 21.37-0.37 21.45-0.30C21.47-0.28 21.49-0.23 21.50-0.14C21.51 0 21.40 0.11 21.26 0.13C20.98 0.15 20.61 0.18 20.28 0.18C20.05 0.18 19.83 0.17 19.63 0.14C19.28 0.07 19.00-0.06 18.78-0.28C18.58-0.52 18.46-0.85 18.46-1.31L18.42-3.96C18.41-4.44 18.52-4.79 18.74-5.05C18.98-5.31 19.30-5.45 19.69-5.50C19.92-5.53 20.21-5.54 20.48-5.54C20.67-5.54 20.86-5.54 21.04-5.53L21.28-5.53C21.42-5.52 21.54-5.42 21.54-5.26C21.54-5.18 21.51-5.12 21.46-5.07C21.42-5.03 21.35-5 21.28-5ZM25.38-4.91C25.02-4.97 24.66-5.01 24.34-5.01C24.13-5.01 23.93-4.99 23.74-4.95C23.32-4.86 23.02-4.63 22.99-4.14C22.96-3.60 23.58-3.30 24.20-3C24.81-2.70 25.42-2.40 25.66-1.84C25.75-1.62 25.80-1.38 25.80-1.17C25.80-1.08 25.79-1 25.78-0.93L25.78-0.94C25.70-0.52 25.39-0.20 25.00-0.03C24.73 0.08 24.32 0.16 23.88 0.16C23.57 0.16 23.20 0.13 22.82 0.06C22.74 0.06 22.68 0.02 22.64-0.05C22.60-0.11 22.59-0.17 22.60-0.25C22.63-0.38 22.77-0.48 22.90-0.46C23.27-0.40 23.61-0.37 23.88-0.37C24.27-0.37 24.58-0.42 24.79-0.52C25.04-0.62 25.22-0.79 25.26-1.02C25.28-1.20 25.26-1.41 25.17-1.63C25.01-2.01 24.47-2.27 23.98-2.53C23.22-2.90 22.42-3.30 22.46-4.17C22.50-4.96 22.97-5.33 23.65-5.46L23.64-5.46C23.85-5.51 24.08-5.53 24.33-5.53C24.69-5.53 25.09-5.49 25.46-5.44C25.53-5.43 25.59-5.40 25.63-5.34L25.62-5.34C25.67-5.28 25.68-5.21 25.67-5.13C25.65-4.99 25.53-4.90 25.38-4.91ZM29.63-5C29.60-5 29.55-5.01 29.50-5.01L29.38-5.01C29.22-5.01 29.05-5.02 28.88-5.02C28.66-5.02 28.42-5.01 28.23-4.98C27.97-4.94 27.74-4.86 27.62-4.70C27.48-4.54 27.41-4.30 27.42-3.96L27.42-3.04L29.82-3.04C29.96-3.04 30.07-2.93 30.07-2.77C30.07-2.62 29.96-2.51 29.82-2.51L27.43-2.51L27.46-1.32C27.46-0.99 27.53-0.78 27.65-0.64C27.77-0.50 27.96-0.43 28.19-0.39C28.37-0.36 28.57-0.35 28.78-0.35C29.08-0.35 29.42-0.38 29.69-0.40C29.76-0.40 29.84-0.37 29.92-0.30C29.94-0.28 29.96-0.23 29.98-0.14C29.98 0 29.87 0.11 29.74 0.13C29.46 0.15 29.08 0.18 28.75 0.18C28.52 0.18 28.30 0.17 28.10 0.14C27.75 0.07 27.47-0.06 27.26-0.28C27.06-0.52 26.94-0.85 26.93-1.31L26.89-3.96C26.88-4.44 26.99-4.79 27.22-5.05C27.45-5.31 27.77-5.45 28.16-5.50C28.39-5.53 28.68-5.54 28.95-5.54C29.14-5.54 29.33-5.54 29.51-5.53L29.75-5.53C29.90-5.52 30.02-5.42 30.02-5.26C30.02-5.18 29.98-5.12 29.94-5.07C29.89-5.03 29.82-5 29.75-5ZM34.93-0.38C34.93-0.10 34.75 0.01 34.59 0.01C34.47 0.01 34.34-0.06 34.29-0.15L31.55-4.46C31.55-3.02 31.56-1.62 31.56-0.20C31.56-0.13 31.53-0.06 31.49-0.02C31.44 0.03 31.38 0.06 31.29 0.06C31.14 0.06 31.03-0.06 31.03-0.20L31.02-5.30C31.02-5.48 31.15-5.57 31.30-5.57C31.40-5.57 31.51-5.52 31.56-5.44L34.40-0.94L34.40-5.33C34.40-5.46 34.52-5.58 34.68-5.58C34.82-5.58 34.93-5.46 34.93-5.33ZM39.67-5.41C39.82-5.41 39.93-5.30 39.93-5.13C39.93-4.99 39.82-4.88 39.67-4.88L38.20-4.88L38.20-0.12C38.20 0.02 38.09 0.14 37.93 0.14C37.79 0.14 37.67 0.02 37.67-0.12L37.67-4.88L36.24-4.88C36.10-4.88 35.98-4.99 35.98-5.14C35.98-5.30 36.10-5.41 36.24-5.41ZM42.55-5.39C42.59-5.50 42.69-5.60 42.84-5.60C42.95-5.60 43.08-5.53 43.13-5.39L45.00-0.31L44.99-0.32C45.02-0.25 45.02-0.18 44.98-0.12C44.95-0.06 44.90-0.01 44.82 0.02L44.83 0.02C44.70 0.08 44.55 0.01 44.50-0.13L43.90-1.78L41.76-1.78L41.17-0.15C41.12-0.02 40.98 0.06 40.85 0.01C40.77-0.03 40.71-0.07 40.68-0.14C40.65-0.20 40.65-0.27 40.66-0.33ZM41.96-2.31L43.70-2.31L42.84-4.68C42.54-3.89 42.25-3.10 41.96-2.31ZM49.45-5.41C49.59-5.41 49.70-5.30 49.70-5.13C49.70-4.99 49.59-4.88 49.45-4.88L47.98-4.88L47.98-0.12C47.98 0.02 47.86 0.14 47.70 0.14C47.57 0.14 47.45 0.02 47.45-0.12L47.45-4.88L46.02-4.88C45.87-4.88 45.76-4.99 45.76-5.14C45.76-5.30 45.87-5.41 46.02-5.41ZM51.22-0.13C51.22 0.02 51.11 0.14 50.94 0.14C50.80 0.14 50.70 0.02 50.70-0.13L50.70-5.28C50.70-5.42 50.80-5.53 50.96-5.53C51.11-5.53 51.22-5.42 51.22-5.28ZM54.41-0.90C54.94-2.39 55.51-3.89 56.06-5.38C56.11-5.51 56.26-5.58 56.41-5.52L56.41-5.53C56.54-5.48 56.60-5.34 56.56-5.20L54.70-0.16C54.63-0.01 54.52 0.06 54.40 0.06C54.29 0.06 54.16-0.02 54.11-0.16L52.22-5.18L52.22-5.18C52.17-5.31 52.24-5.46 52.40-5.51L52.39-5.51C52.53-5.57 52.67-5.49 52.73-5.36ZM60.25-5C60.22-5 60.17-5.01 60.12-5.01L59.99-5.01C59.84-5.01 59.66-5.02 59.50-5.02C59.28-5.02 59.04-5.01 58.85-4.98C58.58-4.94 58.36-4.86 58.23-4.70C58.10-4.54 58.02-4.30 58.03-3.96L58.04-3.04L60.43-3.04C60.58-3.04 60.69-2.93 60.69-2.77C60.69-2.62 60.58-2.51 60.43-2.51L58.05-2.51L58.07-1.32C58.08-0.99 58.14-0.78 58.26-0.64C58.38-0.50 58.58-0.43 58.81-0.39C58.98-0.36 59.18-0.35 59.39-0.35C59.70-0.35 60.03-0.38 60.30-0.40C60.38-0.40 60.46-0.37 60.54-0.30C60.56-0.28 60.58-0.23 60.59-0.14C60.60 0 60.49 0.11 60.35 0.13C60.07 0.15 59.70 0.18 59.37 0.18C59.14 0.18 58.92 0.17 58.72 0.14C58.37 0.07 58.09-0.06 57.87-0.28C57.67-0.52 57.55-0.85 57.54-1.31L57.50-3.96C57.50-4.44 57.61-4.79 57.83-5.05C58.06-5.31 58.38-5.45 58.78-5.50C59.01-5.53 59.30-5.54 59.57-5.54C59.76-5.54 59.94-5.54 60.13-5.53L60.37-5.53C60.51-5.52 60.63-5.42 60.63-5.26C60.63-5.18 60.60-5.12 60.55-5.07C60.50-5.03 60.44-5 60.37-5ZM65.87-5.01C65.72-5.01 65.54-5 65.38-4.96C64.99-4.88 64.65-4.66 64.49-4.25C64.39-4.02 64.33-3.71 64.29-3.43C64.26-3.20 64.25-2.94 64.25-2.70C64.25-2.11 64.33-1.52 64.50-1.10C64.54-0.98 64.60-0.87 64.68-0.78C64.90-0.54 65.22-0.41 65.62-0.39C65.78-0.39 65.95-0.40 66.12-0.44C66.50-0.52 66.85-0.73 67.01-1.14C67.10-1.39 67.17-1.70 67.21-1.97C67.24-2.20 67.26-2.46 67.26-2.69C67.26-3.28 67.17-3.86 67.01-4.29C66.96-4.42 66.90-4.54 66.82-4.62C66.61-4.86 66.28-4.99 65.87-5.01ZM65.89-5.53C66.67-5.50 67.26-5.15 67.50-4.48L67.50-4.49C67.69-4.02 67.78-3.36 67.78-2.69C67.78-2.42 67.77-2.16 67.74-1.90C67.69-1.56 67.62-1.23 67.50-0.94C67.18-0.12 66.39 0.16 65.61 0.14C64.83 0.11 64.25-0.23 63.99-0.92L63.99-0.91C63.82-1.38 63.72-2.04 63.72-2.70C63.72-2.98 63.74-3.24 63.77-3.49C63.82-3.83 63.87-4.17 63.99-4.46L63.99-4.45C64.30-5.28 65.10-5.55 65.89-5.53ZM71.83-3.05C71.98-3.05 72.09-2.94 72.09-2.78C72.09-2.63 71.98-2.52 71.83-2.52L69.46-2.52L69.49-0.17C69.49-0.10 69.46-0.03 69.42 0.02C69.37 0.06 69.30 0.10 69.22 0.10C69.08 0.10 68.96-0.02 68.96-0.16C68.95-1.42 68.93-2.70 68.92-3.97C68.91-4.45 69.03-4.82 69.26-5.06C69.48-5.31 69.81-5.46 70.20-5.51C70.45-5.54 70.74-5.55 71.03-5.55C71.21-5.55 71.38-5.54 71.55-5.54C71.64-5.54 71.71-5.54 71.79-5.54C71.94-5.54 72.05-5.42 72.05-5.26C72.05-5.20 72.02-5.14 71.97-5.08C71.91-5.04 71.84-5.01 71.78-5.02L71.42-5.02C71.26-5.02 71.10-5.02 70.93-5.02C70.71-5.02 70.46-5.02 70.27-4.99C70.01-4.95 69.78-4.86 69.65-4.71C69.51-4.55 69.45-4.31 69.45-3.97C69.45-3.66 69.45-3.35 69.46-3.05ZM76.74-5.39C76.78-5.50 76.87-5.60 77.02-5.60C77.14-5.60 77.26-5.53 77.31-5.39L79.18-0.31L79.18-0.32C79.21-0.25 79.20-0.18 79.17-0.12C79.14-0.06 79.09-0.01 79.01 0.02L79.02 0.02C78.88 0.08 78.74 0.01 78.68-0.13L78.08-1.78L75.94-1.78L75.35-0.15C75.30-0.02 75.17 0.06 75.03 0.01C74.95-0.03 74.90-0.07 74.86-0.14C74.83-0.20 74.83-0.27 74.85-0.33ZM76.14-2.31L77.88-2.31L77.02-4.68C76.73-3.89 76.43-3.10 76.14-2.31ZM83.37-2.72C83.37-3.89 83.15-4.46 82.72-4.71L82.73-4.71C82.41-4.90 82.01-4.96 81.61-4.96C81.31-4.96 81.00-4.93 80.73-4.90L80.73-0.50C81.03-0.45 81.39-0.40 81.71-0.40C82.04-0.40 82.38-0.47 82.66-0.63C83.09-0.94 83.37-1.58 83.37-2.72ZM82.99-5.17C83.60-4.82 83.89-4.11 83.89-2.72C83.89-1.32 83.57-0.57 82.95-0.19C82.62 0.02 82.18 0.10 81.69 0.10C81.30 0.10 80.89 0.06 80.42-0.02C80.30-0.04 80.20-0.15 80.20-0.26L80.20-5.13C80.20-5.27 80.30-5.38 80.45-5.39C80.89-5.42 81.28-5.46 81.62-5.46C82.19-5.46 82.63-5.38 83.00-5.17ZM86.96-0.90C87.50-2.39 88.06-3.89 88.61-5.38C88.66-5.51 88.81-5.58 88.96-5.52L88.96-5.53C89.09-5.48 89.15-5.34 89.11-5.20L87.25-0.16C87.18-0.01 87.07 0.06 86.95 0.06C86.84 0.06 86.71-0.02 86.66-0.16L84.78-5.18L84.78-5.18C84.72-5.31 84.79-5.46 84.95-5.51L84.94-5.51C85.08-5.57 85.22-5.49 85.28-5.36ZM91.75-5.39C91.79-5.50 91.89-5.60 92.04-5.60C92.15-5.60 92.28-5.53 92.33-5.39L94.20-0.31L94.19-0.32C94.22-0.25 94.22-0.18 94.18-0.12C94.15-0.06 94.10-0.01 94.02 0.02L94.03 0.02C93.90 0.08 93.75 0.01 93.70-0.13L93.10-1.78L90.96-1.78L90.37-0.15C90.32-0.02 90.18 0.06 90.05 0.01C89.97-0.03 89.91-0.07 89.88-0.14C89.85-0.20 89.85-0.27 89.86-0.33ZM91.16-2.31L92.90-2.31L92.04-4.68C91.74-3.89 91.45-3.10 91.16-2.31ZM99.08-0.38C99.08-0.10 98.90 0.01 98.74 0.01C98.62 0.01 98.50-0.06 98.44-0.15L95.70-4.46C95.70-3.02 95.71-1.62 95.71-0.20C95.71-0.13 95.68-0.06 95.64-0.02C95.59 0.03 95.53 0.06 95.44 0.06C95.30 0.06 95.18-0.06 95.18-0.20L95.18-5.30C95.18-5.48 95.30-5.57 95.46-5.57C95.55-5.57 95.66-5.52 95.71-5.44L98.55-0.94L98.55-5.33C98.55-5.46 98.67-5.58 98.83-5.58C98.97-5.58 99.08-5.46 99.08-5.33ZM103.35-4.90C103.08-4.92 102.82-4.94 102.56-4.94C101.86-4.94 101.24-4.78 101.02-4.22C100.92-3.94 100.86-3.63 100.82-3.35C100.79-3.10 100.78-2.86 100.78-2.62C100.78-2.02 100.88-1.42 101.05-1.02C101.20-0.70 101.55-0.55 101.97-0.49C102.16-0.46 102.37-0.45 102.58-0.45C102.82-0.45 103.07-0.46 103.32-0.48C103.46-0.47 103.58-0.38 103.59-0.22C103.59-0.16 103.57-0.10 103.53-0.05C103.48 0.01 103.42 0.04 103.36 0.05C103.10 0.07 102.82 0.09 102.57 0.09C102.33 0.09 102.10 0.07 101.89 0.04C101.32-0.05 100.82-0.30 100.58-0.80C100.37-1.28 100.25-1.96 100.25-2.62C100.25-2.89 100.26-3.17 100.30-3.42C100.33-3.74 100.41-4.10 100.51-4.39C100.84-5.27 101.65-5.46 102.52-5.46C102.81-5.46 103.11-5.45 103.40-5.42C103.52-5.41 103.63-5.29 103.62-5.14C103.62-5.06 103.59-5.02 103.53-4.96L103.54-4.96C103.49-4.91 103.43-4.89 103.35-4.90ZM107.20-5C107.17-5 107.12-5.01 107.07-5.01L106.94-5.01C106.79-5.01 106.62-5.02 106.45-5.02C106.23-5.02 105.99-5.01 105.80-4.98C105.54-4.94 105.31-4.86 105.18-4.70C105.05-4.54 104.98-4.30 104.98-3.96L104.99-3.04L107.38-3.04C107.53-3.04 107.64-2.93 107.64-2.77C107.64-2.62 107.53-2.51 107.38-2.51L105.00-2.51L105.02-1.32C105.03-0.99 105.10-0.78 105.22-0.64C105.34-0.50 105.53-0.43 105.76-0.39C105.94-0.36 106.14-0.35 106.34-0.35C106.65-0.35 106.98-0.38 107.26-0.40C107.33-0.40 107.41-0.37 107.49-0.30C107.51-0.28 107.53-0.23 107.54-0.14C107.55 0 107.44 0.11 107.30 0.13C107.02 0.15 106.65 0.18 106.32 0.18C106.09 0.18 105.87 0.17 105.67 0.14C105.32 0.07 105.04-0.06 104.82-0.28C104.62-0.52 104.50-0.85 104.50-1.31L104.46-3.96C104.45-4.44 104.56-4.79 104.78-5.05C105.02-5.31 105.34-5.45 105.73-5.50C105.96-5.53 106.25-5.54 106.52-5.54C106.71-5.54 106.90-5.54 107.08-5.53L107.32-5.53C107.46-5.52 107.58-5.42 107.58-5.26C107.58-5.18 107.55-5.12 107.50-5.07C107.46-5.03 107.39-5 107.32-5ZM111.80-2.72C111.80-3.89 111.58-4.46 111.15-4.71L111.16-4.71C110.84-4.90 110.44-4.96 110.04-4.96C109.74-4.96 109.43-4.93 109.16-4.90L109.16-0.50C109.46-0.45 109.82-0.40 110.14-0.40C110.47-0.40 110.81-0.47 111.10-0.63C111.52-0.94 111.80-1.58 111.80-2.72ZM111.42-5.17C112.03-4.82 112.32-4.11 112.32-2.72C112.32-1.32 112.00-0.57 111.38-0.19C111.05 0.02 110.62 0.10 110.12 0.10C109.74 0.10 109.32 0.06 108.85-0.02C108.73-0.04 108.63-0.15 108.63-0.26L108.63-5.13C108.63-5.27 108.74-5.38 108.88-5.39C109.32-5.42 109.71-5.46 110.06-5.46C110.62-5.46 111.06-5.38 111.43-5.17ZM115.50-5.18C115.50-5.33 115.62-5.45 115.78-5.45C115.80-5.45 115.81-5.45 115.82-5.44C115.84-5.45 115.86-5.45 115.87-5.45L116.10-5.46L116.10-5.46L116.33-5.49C116.62-5.51 116.89-5.53 117.15-5.53C117.55-5.53 117.92-5.48 118.23-5.32C118.72-5.06 118.97-4.45 118.98-3.90C119.00-3.58 118.93-3.23 118.78-2.96C118.67-2.75 118.48-2.54 118.26-2.42L118.27-2.42C117.90-2.19 117.40-2.14 116.90-2.14C116.68-2.14 116.46-2.15 116.25-2.16C116.19-2.16 116.14-2.17 116.08-2.17L116.03-2.17L116.03-0.21C116.03-0.07 115.92 0.05 115.76 0.05C115.62 0.05 115.50-0.07 115.50-0.21ZM116.10-2.69C116.15-2.69 116.21-2.68 116.26-2.68C116.46-2.67 116.68-2.66 116.89-2.66C117.31-2.66 117.72-2.70 117.99-2.87C118.14-2.95 118.25-3.06 118.31-3.20C118.42-3.41 118.46-3.65 118.46-3.89C118.45-4.14 118.38-4.38 118.28-4.57L118.28-4.56C118.19-4.69 118.10-4.80 117.98-4.86C117.78-4.97 117.50-5.01 117.18-5.01C116.93-5.01 116.66-4.98 116.37-4.96L116.03-4.94L116.03-2.69ZM123.54-0.33C123.57-0.27 123.59-0.19 123.58-0.14C123.57-0.06 123.53-0.01 123.44 0.03L123.45 0.03C123.33 0.11 123.17 0.06 123.10-0.05C122.66-0.76 122.18-1.50 121.74-2.22C121.63-2.22 121.52-2.22 121.41-2.22C121.18-2.22 120.95-2.22 120.74-2.23C120.69-2.23 120.62-2.24 120.57-2.24L120.53-2.24L120.53-0.12C120.53 0.02 120.42 0.14 120.26 0.14C120.11 0.14 120.00 0.02 120.00-0.12L120.00-5.21C120.00-5.31 120.06-5.40 120.16-5.44C120.17-5.45 120.18-5.45 120.18-5.45C120.19-5.46 120.21-5.46 120.22-5.46C120.22-5.46 120.23-5.46 120.24-5.46L120.31-5.46C120.43-5.46 120.64-5.48 120.72-5.49C120.99-5.50 121.26-5.52 121.53-5.52C121.97-5.52 122.38-5.46 122.73-5.30C123.21-5.04 123.46-4.46 123.49-3.92C123.50-3.62 123.44-3.31 123.30-3.04C123.18-2.81 123.01-2.62 122.76-2.48C122.62-2.40 122.47-2.34 122.31-2.30ZM120.59-2.77C120.65-2.77 120.70-2.76 120.76-2.76C120.96-2.75 121.18-2.74 121.39-2.74C121.82-2.74 122.22-2.78 122.50-2.94C122.65-3.02 122.76-3.14 122.82-3.29C122.93-3.46 122.96-3.69 122.95-3.90C122.94-4.12 122.89-4.34 122.79-4.51C122.72-4.65 122.62-4.77 122.49-4.83C122.24-4.96 121.90-5 121.53-5C121.28-5 121.03-4.98 120.76-4.97C120.75-4.98 120.62-4.96 120.53-4.95L120.53-2.77ZM126.79-5.01C126.64-5.01 126.46-5 126.30-4.96C125.91-4.88 125.57-4.66 125.41-4.25C125.31-4.02 125.25-3.71 125.21-3.43C125.18-3.20 125.17-2.94 125.17-2.70C125.17-2.11 125.25-1.52 125.42-1.10C125.46-0.98 125.52-0.87 125.60-0.78C125.82-0.54 126.14-0.41 126.54-0.39C126.70-0.39 126.87-0.40 127.04-0.44C127.42-0.52 127.77-0.73 127.93-1.14C128.02-1.39 128.09-1.70 128.13-1.97C128.16-2.20 128.18-2.46 128.18-2.69C128.18-3.28 128.09-3.86 127.93-4.29C127.88-4.42 127.82-4.54 127.74-4.62C127.53-4.86 127.20-4.99 126.79-5.01ZM126.81-5.53C127.59-5.50 128.18-5.15 128.42-4.48L128.42-4.49C128.61-4.02 128.70-3.36 128.70-2.69C128.70-2.42 128.69-2.16 128.66-1.90C128.61-1.56 128.54-1.23 128.42-0.94C128.10-0.12 127.31 0.16 126.53 0.14C125.75 0.11 125.17-0.23 124.91-0.92L124.91-0.91C124.74-1.38 124.64-2.04 124.64-2.70C124.64-2.98 124.66-3.24 124.69-3.49C124.74-3.83 124.79-4.17 124.91-4.46L124.91-4.45C125.22-5.28 126.02-5.55 126.81-5.53ZM133.13-2.72C133.13-3.89 132.91-4.46 132.48-4.71L132.49-4.71C132.17-4.90 131.77-4.96 131.37-4.96C131.07-4.96 130.76-4.93 130.49-4.90L130.49-0.50C130.79-0.45 131.15-0.40 131.47-0.40C131.80-0.40 132.14-0.47 132.42-0.63C132.85-0.94 133.13-1.58 133.13-2.72ZM132.75-5.17C133.36-4.82 133.65-4.11 133.65-2.72C133.65-1.32 133.33-0.57 132.71-0.19C132.38 0.02 131.94 0.10 131.45 0.10C131.06 0.10 130.65 0.06 130.18-0.02C130.06-0.04 129.96-0.15 129.96-0.26L129.96-5.13C129.96-5.27 130.06-5.38 130.21-5.39C130.65-5.42 131.04-5.46 131.38-5.46C131.95-5.46 132.39-5.38 132.76-5.17ZM138.40-5.34L138.40-1.67C138.43-0.87 137.99-0.35 137.41-0.10C137.16 0.01 136.88 0.06 136.61 0.06C136.36 0.06 136.08 0.01 135.86-0.07C135.24-0.30 134.75-0.82 134.75-1.64L134.75-5.36C134.75-5.50 134.86-5.62 135.02-5.62C135.17-5.62 135.27-5.50 135.27-5.36L135.27-1.64C135.27-0.86 135.95-0.46 136.63-0.47C136.83-0.48 137.03-0.52 137.20-0.59C137.59-0.75 137.90-1.11 137.87-1.66C137.86-1.89 137.86-2.94 137.86-3.90C137.86-4.19 137.87-4.47 137.87-4.72C137.87-4.98 137.86-5.18 137.86-5.34C137.86-5.48 137.98-5.59 138.13-5.60C138.20-5.60 138.27-5.57 138.32-5.52C138.37-5.47 138.40-5.42 138.40-5.34ZM142.62-4.90C142.35-4.92 142.09-4.94 141.83-4.94C141.14-4.94 140.51-4.78 140.29-4.22C140.19-3.94 140.13-3.63 140.10-3.35C140.06-3.10 140.05-2.86 140.05-2.62C140.05-2.02 140.15-1.42 140.32-1.02C140.47-0.70 140.82-0.55 141.24-0.49C141.43-0.46 141.64-0.45 141.85-0.45C142.10-0.45 142.34-0.46 142.59-0.48C142.73-0.47 142.86-0.38 142.86-0.22C142.86-0.16 142.84-0.10 142.80-0.05C142.75 0.01 142.69 0.04 142.63 0.05C142.38 0.07 142.10 0.09 141.84 0.09C141.60 0.09 141.38 0.07 141.16 0.04C140.59-0.05 140.10-0.30 139.86-0.80C139.64-1.28 139.52-1.96 139.52-2.62C139.52-2.89 139.54-3.17 139.57-3.42C139.60-3.74 139.68-4.10 139.78-4.39C140.11-5.27 140.92-5.46 141.79-5.46C142.08-5.46 142.38-5.45 142.67-5.42C142.79-5.41 142.90-5.29 142.90-5.14C142.90-5.06 142.86-5.02 142.80-4.96L142.81-4.96C142.76-4.91 142.70-4.89 142.62-4.90ZM147.26-5.41C147.41-5.41 147.52-5.30 147.52-5.13C147.52-4.99 147.41-4.88 147.26-4.88L145.79-4.88L145.79-0.12C145.79 0.02 145.68 0.14 145.52 0.14C145.38 0.14 145.26 0.02 145.26-0.12L145.26-4.88L143.83-4.88C143.69-4.88 143.58-4.99 143.58-5.14C143.58-5.30 143.69-5.41 143.83-5.41ZM149.03-0.13C149.03 0.02 148.93 0.14 148.76 0.14C148.62 0.14 148.51 0.02 148.51-0.13L148.51-5.28C148.51-5.42 148.62-5.53 148.78-5.53C148.93-5.53 149.03-5.42 149.03-5.28ZM152.22-0.90C152.76-2.39 153.33-3.89 153.87-5.38C153.93-5.51 154.07-5.58 154.22-5.52L154.22-5.53C154.35-5.48 154.42-5.34 154.38-5.20L152.51-0.16C152.45-0.01 152.34 0.06 152.22 0.06C152.10 0.06 151.98-0.02 151.93-0.16L150.04-5.18L150.04-5.18C149.98-5.31 150.06-5.46 150.22-5.51L150.21-5.51C150.34-5.57 150.49-5.49 150.54-5.36ZM155.90-0.13C155.90 0.02 155.80 0.14 155.63 0.14C155.49 0.14 155.38 0.02 155.38-0.13L155.38-5.28C155.38-5.42 155.49-5.53 155.65-5.53C155.80-5.53 155.90-5.42 155.90-5.28ZM160.59-5.41C160.74-5.41 160.85-5.30 160.85-5.13C160.85-4.99 160.74-4.88 160.59-4.88L159.12-4.88L159.12-0.12C159.12 0.02 159.01 0.14 158.85 0.14C158.71 0.14 158.59 0.02 158.59-0.12L158.59-4.88L157.16-4.88C157.02-4.88 156.90-4.99 156.90-5.14C156.90-5.30 157.02-5.41 157.16-5.41ZM163.67-0.20C163.67-0.06 163.56 0.06 163.40 0.06C163.26 0.06 163.14-0.06 163.14-0.20L163.14-2.26L161.64-5.07C161.61-5.14 161.60-5.21 161.62-5.26C161.64-5.33 161.68-5.38 161.72-5.42C161.86-5.48 162.04-5.45 162.10-5.32L163.38-2.90L164.66-5.33C164.73-5.46 164.88-5.50 165.02-5.43C165.14-5.37 165.19-5.21 165.13-5.08L163.67-2.27Z">
                        </path>
                    </g>
                </g>
            </g>
        </g>
    </g>
</svg>
